<svg width="300" height="300" viewBox="0 0 300 300" fill="none" xmlns="http://www.w3.org/2000/svg">
  <defs>
    <linearGradient id="iconBg" x1="42" y1="34" x2="252" y2="258" gradientUnits="userSpaceOnUse">
      <stop stop-color="#67E8F9"/>
      <stop offset="0.42" stop-color="#22D3EE"/>
      <stop offset="1" stop-color="#2563EB"/>
    </linearGradient>
    <linearGradient id="iconSheen" x1="58" y1="28" x2="198" y2="174" gradientUnits="userSpaceOnUse">
      <stop stop-color="#F2FDFF" stop-opacity="0.92"/>
      <stop offset="1" stop-color="#F2FDFF" stop-opacity="0"/>
    </linearGradient>
  </defs>

  <rect x="28" y="28" width="244" height="244" rx="74" fill="#071223"/>
  <rect x="36" y="36" width="228" height="228" rx="66" fill="url(#iconBg)"/>

  <path d="M88 116.5C88 89.1619 110.162 67 137.5 67H181.5C208.838 67 231 89.1619 231 116.5V149.5C231 176.838 208.838 199 181.5 199H155.545C151.765 199 148.214 200.82 146.001 203.891L126.946 230.327C123.508 235.094 116 232.664 116 226.786V208.5C116 203.253 111.747 199 106.5 199C96.2827 199 88 190.717 88 180.5V116.5Z" fill="#03111D"/>
  <path d="M105 106C105 89.4315 118.431 76 135 76H181C197.569 76 211 89.4315 211 106V142C211 158.569 197.569 172 181 172H152.723C149.562 172 146.599 173.52 144.749 176.082L129.085 197.78C125.537 202.695 117.737 200.196 117.737 194.14V179C117.737 175.134 114.603 172 110.737 172C107.567 172 105 169.433 105 166.263V106Z" fill="white"/>
  <circle cx="138.5" cy="124.5" r="13.5" fill="#22D3EE"/>
  <circle cx="158.5" cy="124.5" r="13.5" fill="#0EA5E9"/>
  <circle cx="178.5" cy="124.5" r="13.5" fill="#2563EB"/>
  <path d="M42 46C42 40.4772 46.4772 36 52 36H150C100.249 40.0917 65.3809 68.6077 42 118V46Z" fill="url(#iconSheen)"/>
</svg>
