<svg width="620" height="156" viewBox="0 0 620 156" fill="none" xmlns="http://www.w3.org/2000/svg">
  <defs>
    <linearGradient id="brandBg" x1="20" y1="18" x2="136" y2="134" gradientUnits="userSpaceOnUse">
      <stop stop-color="#67E8F9"/>
      <stop offset="0.44" stop-color="#22D3EE"/>
      <stop offset="1" stop-color="#2563EB"/>
    </linearGradient>
    <linearGradient id="brandGlow" x1="28" y1="8" x2="118" y2="124" gradientUnits="userSpaceOnUse">
      <stop stop-color="#E0FBFF" stop-opacity="0.9"/>
      <stop offset="1" stop-color="#E0FBFF" stop-opacity="0"/>
    </linearGradient>
    <linearGradient id="textFill" x1="172" y1="36" x2="456" y2="134" gradientUnits="userSpaceOnUse">
      <stop stop-color="#F8FBFF"/>
      <stop offset="1" stop-color="#D8EAFE"/>
    </linearGradient>
  </defs>

  <g filter="url(#shadow)">
    <rect x="16" y="16" width="124" height="124" rx="38" fill="#071223"/>
    <rect x="20" y="20" width="116" height="116" rx="34" fill="url(#brandBg)"/>
    <path d="M46 55.5C46 44.1782 55.1782 35 66.5 35H89.5C100.822 35 110 44.1782 110 55.5V72.5C110 83.8218 100.822 93 89.5 93H76.7176C74.6491 93 72.7091 94.0126 71.5232 95.713L62.5729 108.546C60.7709 111.13 56.7148 109.856 56.7148 106.706V96.5C56.7148 94.567 55.1478 93 53.2148 93C49.2303 93 46 89.7697 46 85.7852V55.5Z" fill="#03111D"/>
    <path d="M56 49.5C56 42.5964 61.5964 37 68.5 37H90.5C97.4036 37 103 42.5964 103 49.5V67.5C103 74.4036 97.4036 80 90.5 80H77.4427C75.8349 80 74.3228 80.7748 73.3829 82.0822L65.2865 93.3445C63.3428 96.0478 59.0714 94.6732 59.0714 91.3437V83.5C59.0714 81.567 57.5044 80 55.5714 80C55.2568 80 55 79.7432 55 79.4286V49.5H56Z" fill="white"/>
    <circle cx="70.5" cy="58.5" r="5.5" fill="#22D3EE"/>
    <circle cx="80.5" cy="58.5" r="5.5" fill="#0EA5E9"/>
    <circle cx="90.5" cy="58.5" r="5.5" fill="#2563EB"/>
    <path d="M22 26C22 22.6863 24.6863 20 28 20H78C50.3858 22.2494 32.2466 34.3525 22 56V26Z" fill="url(#brandGlow)"/>
  </g>

  <text x="172" y="90" fill="url(#textFill)" font-family="Outfit, Arial, sans-serif" font-size="54" font-weight="700" letter-spacing="0.02em">
    QuickChat
  </text>
  <text x="174" y="118" fill="#88A5C6" font-family="Outfit, Arial, sans-serif" font-size="18" font-weight="500" letter-spacing="0.22em">
    REAL-TIME TEAM MESSAGING
  </text>

  <defs>
    <filter id="shadow" x="0" y="0" width="156" height="156" filterUnits="userSpaceOnUse" color-interpolation-filters="sRGB">
      <feFlood flood-opacity="0" result="BackgroundImageFix"/>
      <feColorMatrix in="SourceAlpha" type="matrix" values="0 0 0 0 0 0 0 0 0 0 0 0 0 0 0 0 0 0 127 0" result="hardAlpha"/>
      <feOffset dy="8"/>
      <feGaussianBlur stdDeviation="8"/>
      <feComposite in2="hardAlpha" operator="out"/>
      <feColorMatrix type="matrix" values="0 0 0 0 0.0117647 0 0 0 0 0.0901961 0 0 0 0 0.168627 0 0 0 0.42 0"/>
      <feBlend mode="normal" in2="BackgroundImageFix" result="effect1_dropShadow"/>
      <feBlend mode="normal" in="SourceGraphic" in2="effect1_dropShadow" result="shape"/>
    </filter>
  </defs>
</svg>
